<mxfile host="app.diagrams.net" modified="2023-12-06T09:57:29.051Z" agent="Mozilla/5.0 (Windows NT 10.0; Win64; x64) AppleWebKit/537.36 (KHTML, like Gecko) Chrome/119.0.0.0 Safari/537.36" etag="gWupnMNzz7PfnajqAL5P" version="22.1.5" type="device">
  <diagram id="C5RBs43oDa-KdzZeNtuy" name="Page-1">
    <mxGraphModel dx="2345" dy="1797" grid="1" gridSize="10" guides="1" tooltips="1" connect="1" arrows="1" fold="1" page="1" pageScale="1" pageWidth="827" pageHeight="1169" math="0" shadow="0">
      <root>
        <mxCell id="WIyWlLk6GJQsqaUBKTNV-0" />
        <mxCell id="WIyWlLk6GJQsqaUBKTNV-1" parent="WIyWlLk6GJQsqaUBKTNV-0" />
        <mxCell id="z-7mX0O8Bbf6YgXgiFEb-25" value="Actor" style="shape=umlActor;verticalLabelPosition=bottom;verticalAlign=top;html=1;outlineConnect=0;" vertex="1" parent="WIyWlLk6GJQsqaUBKTNV-1">
          <mxGeometry x="-230" y="-50" width="30" height="60" as="geometry" />
        </mxCell>
        <mxCell id="z-7mX0O8Bbf6YgXgiFEb-26" value="CALCULTOR" style="rounded=1;whiteSpace=wrap;html=1;" vertex="1" parent="WIyWlLk6GJQsqaUBKTNV-1">
          <mxGeometry x="-30" y="-40" width="120" height="60" as="geometry" />
        </mxCell>
        <mxCell id="z-7mX0O8Bbf6YgXgiFEb-27" value="NUMERO COMPLESSO" style="rounded=1;whiteSpace=wrap;html=1;" vertex="1" parent="WIyWlLk6GJQsqaUBKTNV-1">
          <mxGeometry x="240" y="-40" width="120" height="60" as="geometry" />
        </mxCell>
        <mxCell id="z-7mX0O8Bbf6YgXgiFEb-28" value="" style="endArrow=none;html=1;rounded=0;" edge="1" parent="WIyWlLk6GJQsqaUBKTNV-1">
          <mxGeometry width="50" height="50" relative="1" as="geometry">
            <mxPoint x="-216" y="300" as="sourcePoint" />
            <mxPoint x="-215.62" y="30" as="targetPoint" />
            <Array as="points">
              <mxPoint x="-215.62" y="230" />
            </Array>
          </mxGeometry>
        </mxCell>
        <mxCell id="z-7mX0O8Bbf6YgXgiFEb-29" value="" style="endArrow=none;html=1;rounded=0;" edge="1" parent="WIyWlLk6GJQsqaUBKTNV-1">
          <mxGeometry width="50" height="50" relative="1" as="geometry">
            <mxPoint x="30" y="300" as="sourcePoint" />
            <mxPoint x="30" y="20" as="targetPoint" />
            <Array as="points">
              <mxPoint x="30" y="220" />
            </Array>
          </mxGeometry>
        </mxCell>
        <mxCell id="z-7mX0O8Bbf6YgXgiFEb-30" value="" style="endArrow=none;html=1;rounded=0;" edge="1" parent="WIyWlLk6GJQsqaUBKTNV-1">
          <mxGeometry width="50" height="50" relative="1" as="geometry">
            <mxPoint x="299" y="260" as="sourcePoint" />
            <mxPoint x="299.38" y="20" as="targetPoint" />
            <Array as="points">
              <mxPoint x="299.38" y="220" />
            </Array>
          </mxGeometry>
        </mxCell>
        <mxCell id="z-7mX0O8Bbf6YgXgiFEb-31" value="" style="endArrow=classic;html=1;rounded=0;" edge="1" parent="WIyWlLk6GJQsqaUBKTNV-1">
          <mxGeometry width="50" height="50" relative="1" as="geometry">
            <mxPoint x="-210" y="80" as="sourcePoint" />
            <mxPoint x="30" y="80" as="targetPoint" />
          </mxGeometry>
        </mxCell>
        <mxCell id="z-7mX0O8Bbf6YgXgiFEb-32" value="&lt;div&gt;sub(NumComp1, NumComp2)&amp;nbsp;&lt;/div&gt;" style="text;html=1;align=center;verticalAlign=middle;resizable=0;points=[];autosize=1;strokeColor=none;fillColor=none;" vertex="1" parent="WIyWlLk6GJQsqaUBKTNV-1">
          <mxGeometry x="-200" y="50" width="190" height="30" as="geometry" />
        </mxCell>
        <mxCell id="z-7mX0O8Bbf6YgXgiFEb-33" value="" style="endArrow=classic;html=1;rounded=0;" edge="1" parent="WIyWlLk6GJQsqaUBKTNV-1">
          <mxGeometry width="50" height="50" relative="1" as="geometry">
            <mxPoint x="30" y="120" as="sourcePoint" />
            <mxPoint x="310" y="120" as="targetPoint" />
          </mxGeometry>
        </mxCell>
        <mxCell id="z-7mX0O8Bbf6YgXgiFEb-34" value="create(Re1, Im1)" style="text;html=1;align=center;verticalAlign=middle;resizable=0;points=[];autosize=1;strokeColor=none;fillColor=none;" vertex="1" parent="WIyWlLk6GJQsqaUBKTNV-1">
          <mxGeometry x="100" y="90" width="110" height="30" as="geometry" />
        </mxCell>
        <mxCell id="z-7mX0O8Bbf6YgXgiFEb-35" value="create(Re2, Im2)" style="text;html=1;align=center;verticalAlign=middle;resizable=0;points=[];autosize=1;strokeColor=none;fillColor=none;" vertex="1" parent="WIyWlLk6GJQsqaUBKTNV-1">
          <mxGeometry x="100" y="130" width="110" height="30" as="geometry" />
        </mxCell>
        <mxCell id="z-7mX0O8Bbf6YgXgiFEb-36" value="" style="endArrow=classic;html=1;rounded=0;" edge="1" parent="WIyWlLk6GJQsqaUBKTNV-1">
          <mxGeometry width="50" height="50" relative="1" as="geometry">
            <mxPoint x="35" y="210" as="sourcePoint" />
            <mxPoint x="305" y="210" as="targetPoint" />
          </mxGeometry>
        </mxCell>
        <mxCell id="z-7mX0O8Bbf6YgXgiFEb-37" value="&lt;span style=&quot;color: rgb(0, 0, 0); font-family: Helvetica; font-size: 12px; font-style: normal; font-variant-ligatures: normal; font-variant-caps: normal; font-weight: 400; letter-spacing: normal; orphans: 2; text-align: center; text-indent: 0px; text-transform: none; widows: 2; word-spacing: 0px; -webkit-text-stroke-width: 0px; background-color: rgb(251, 251, 251); text-decoration-thickness: initial; text-decoration-style: initial; text-decoration-color: initial; float: none; display: inline !important;&quot;&gt;add(NumComp1, NumComp2)&amp;nbsp;&lt;/span&gt;" style="text;whiteSpace=wrap;html=1;" vertex="1" parent="WIyWlLk6GJQsqaUBKTNV-1">
          <mxGeometry x="70" y="180" width="200" height="40" as="geometry" />
        </mxCell>
        <mxCell id="z-7mX0O8Bbf6YgXgiFEb-38" value="" style="endArrow=classic;html=1;rounded=0;" edge="1" parent="WIyWlLk6GJQsqaUBKTNV-1">
          <mxGeometry width="50" height="50" relative="1" as="geometry">
            <mxPoint x="300" y="260" as="sourcePoint" />
            <mxPoint x="30" y="260" as="targetPoint" />
          </mxGeometry>
        </mxCell>
        <mxCell id="z-7mX0O8Bbf6YgXgiFEb-39" value="return NumComp3" style="text;html=1;align=center;verticalAlign=middle;resizable=0;points=[];autosize=1;strokeColor=none;fillColor=none;" vertex="1" parent="WIyWlLk6GJQsqaUBKTNV-1">
          <mxGeometry x="100" y="230" width="120" height="30" as="geometry" />
        </mxCell>
        <mxCell id="z-7mX0O8Bbf6YgXgiFEb-40" value="receive NumComp3" style="text;html=1;align=center;verticalAlign=middle;resizable=0;points=[];autosize=1;strokeColor=none;fillColor=none;" vertex="1" parent="WIyWlLk6GJQsqaUBKTNV-1">
          <mxGeometry x="-160" y="270" width="130" height="30" as="geometry" />
        </mxCell>
        <mxCell id="z-7mX0O8Bbf6YgXgiFEb-41" value="" style="endArrow=classic;html=1;rounded=0;" edge="1" parent="WIyWlLk6GJQsqaUBKTNV-1">
          <mxGeometry width="50" height="50" relative="1" as="geometry">
            <mxPoint x="30" y="300" as="sourcePoint" />
            <mxPoint x="-210" y="300" as="targetPoint" />
          </mxGeometry>
        </mxCell>
        <mxCell id="z-7mX0O8Bbf6YgXgiFEb-42" value="" style="endArrow=classic;html=1;rounded=0;" edge="1" parent="WIyWlLk6GJQsqaUBKTNV-1">
          <mxGeometry width="50" height="50" relative="1" as="geometry">
            <mxPoint x="35" y="160" as="sourcePoint" />
            <mxPoint x="305" y="160" as="targetPoint" />
          </mxGeometry>
        </mxCell>
      </root>
    </mxGraphModel>
  </diagram>
</mxfile>
